<svg height="512pt" viewBox="-65 0 512 512" width="512pt" xmlns="http://www.w3.org/2000/svg"><path d="m366.304688 504.484375h-350.523438c-4.566406 0-8.265625-3.699219-8.265625-8.265625v-430.164062c0-4.566407 3.699219-8.265626 8.265625-8.265626h350.523438c4.566406 0 8.265624 3.699219 8.265624 8.265626v430.164062c0 4.566406-3.699218 8.265625-8.265624 8.265625zm0 0" fill="#ac6a51"/><path d="m374.570312 66.050781v430.171875c0 4.558594-3.695312 8.265625-8.265624 8.265625h-16.769532c4.570313 0 8.269532-3.707031 8.269532-8.265625v-430.171875c0-4.558593-3.699219-8.265625-8.269532-8.265625h16.769532c4.570312 0 8.265624 3.707032 8.265624 8.265625zm0 0" fill="#945b44"/><path d="m330.339844 421.769531h-278.59375c-3.675782 0-6.652344-2.980469-6.652344-6.652343v-321.75c0-3.675782 2.980469-6.652344 6.652344-6.652344h278.59375c3.675781 0 6.652344 2.976562 6.652344 6.652344v321.75c0 3.675781-2.980469 6.652343-6.652344 6.652343zm0 0" fill="#fff5f5"/><path d="m336.996094 93.367188v321.746093c0 3.675781-2.984375 6.664063-6.660156 6.664063h-18.035157c3.675781 0 6.660157-2.988282 6.660157-6.664063v-321.746093c0-3.679688-2.984376-6.652344-6.660157-6.652344h18.035157c3.675781 0 6.660156 2.972656 6.660156 6.652344zm0 0" fill="#efe2dd"/><g fill="#c9f0ff"><path d="m122.882812 178.898438c0 11.15625-9.042968 20.199218-20.199218 20.199218-11.152344 0-20.199219-9.042968-20.199219-20.199218 0-11.152344 9.046875-20.199219 20.199219-20.199219 11.15625 0 20.199218 9.046875 20.199218 20.199219zm0 0"/><path d="m122.882812 268.785156c0 11.15625-9.042968 20.199219-20.199218 20.199219-11.152344 0-20.199219-9.042969-20.199219-20.199219s9.046875-20.199218 20.199219-20.199218c11.15625 0 20.199218 9.042968 20.199218 20.199218zm0 0"/><path d="m122.882812 358.671875c0 11.15625-9.042968 20.199219-20.199218 20.199219-11.152344 0-20.199219-9.042969-20.199219-20.199219s9.046875-20.199219 20.199219-20.199219c11.15625 0 20.199218 9.042969 20.199218 20.199219zm0 0"/></g><path d="m122.878906 178.902344c0 11.152344-9.035156 20.199218-20.199218 20.199218-8.425782 0-15.648438-5.160156-18.675782-12.492187 2.085938.730469 4.316406 1.121094 6.652344 1.121094 11.164062 0 20.199219-9.039063 20.199219-20.199219 0-2.726562-.539063-5.332031-1.523438-7.707031 7.898438 2.746093 13.546875 10.25 13.546875 19.078125zm0 0" fill="#9ae7fd"/><path d="m122.878906 268.789062c0 11.152344-9.035156 20.199219-20.199218 20.199219-8.414063 0-15.640626-5.160156-18.664063-12.496093 2.074219.730468 4.316406 1.121093 6.640625 1.121093 11.164062 0 20.199219-9.035156 20.199219-20.199219 0-2.722656-.539063-5.328124-1.523438-7.703124 7.898438 2.746093 13.546875 10.25 13.546875 19.078124zm0 0" fill="#9ae7fd"/><path d="m122.878906 358.671875c0 11.152344-9.035156 20.199219-20.199218 20.199219-8.425782 0-15.648438-5.160156-18.675782-12.492188 2.085938.730469 4.316406 1.121094 6.652344 1.121094 11.164062 0 20.199219-9.039062 20.199219-20.199219 0-2.726562-.539063-5.328125-1.523438-7.703125 7.898438 2.753906 13.546875 10.257813 13.546875 19.074219zm0 0" fill="#9ae7fd"/><path d="m241.476562 57.789062c-.003906-.253906-.015624-.503906-.019531-.753906.003907-.308594.023438-.613281.023438-.921875h-.046875c-.96875-27-23.152344-48.597656-50.390625-48.597656s-49.421875 21.597656-50.390625 48.597656h-.046875c0 .308594.019531.613281.023437.921875-.003906.25-.015625.5-.019531.753906h-41.410156v56.652344c0 4.425782 3.589843 8.015625 8.015625 8.015625h167.65625c4.425781 0 8.015625-3.589843 8.015625-8.015625v-56.652344zm0 0" fill="#f7de92"/><path d="m282.882812 57.785156v56.652344c0 4.425781-3.589843 8.015625-8.015624 8.015625h-9.699219v-64.667969zm0 0" fill="#f5d573"/><path d="m366.304688 50.273438h-83.410157-34.414062c-3.738281-28.605469-27.976563-50.273438-57.4375-50.273438-29.460938 0-53.699219 21.667969-57.4375 50.273438h-117.824219c-8.703125 0-15.78125 7.078124-15.78125 15.78125v430.164062c0 8.703125 7.078125 15.78125 15.78125 15.78125h350.523438c8.699218 0 15.78125-7.078125 15.78125-15.78125v-430.164062c0-8.703126-7.078126-15.78125-15.78125-15.78125zm.75 445.945312c0 .414062-.335938.753906-.75.753906h-350.523438c-.414062 0-.75-.339844-.75-.753906v-430.164062c0-.414063.335938-.75.75-.75h75.902344v13.894531h-39.9375c-7.8125 0-14.167969 6.355469-14.167969 14.167969v245.105468c0 4.148438 3.363281 7.515625 7.515625 7.515625 4.148438 0 7.515625-3.363281 7.515625-7.515625v-244.246094h39.078125v20.214844c0 8.5625 6.964844 15.527344 15.527344 15.527344h34.277344c4.152343 0 7.515624-3.363281 7.515624-7.515625 0-4.148437-3.363281-7.511719-7.515624-7.511719h-34.277344c-.273438 0-.5-.226562-.5-.503906v-49.132812h33.894531c4.101563 0 7.441406-3.285157 7.515625-7.382813l.019531-.757813c0-.085937 0-.175781 0-.261718l-.003906-.136719c.007813-.125.015625-.253906.019531-.378906.832032-23.191407 19.667969-41.359375 42.882813-41.359375 23.214843 0 42.050781 18.167968 42.882812 41.359375.003907.125.011719.25.019531.378906l-.003906.136719v.261718l.019532.757813c.074218 4.097656 3.417968 7.382813 7.515624 7.382813h33.894532v49.136718c0 .273438-.226563.5-.5.5h-97.855469c-4.152344 0-7.515625 3.363282-7.515625 7.515625 0 4.148438 3.363281 7.515625 7.515625 7.515625h97.855469c8.5625 0 15.527344-6.96875 15.527344-15.53125v-20.214844h39.078124v320.03125h-276.867187v-40.730468c0-4.148438-3.367187-7.515625-7.515625-7.515625-4.152344 0-7.515625 3.367187-7.515625 7.515625v41.585937c0 7.816407 6.355469 14.171875 14.167969 14.171875h278.59375c7.8125 0 14.167968-6.355468 14.167968-14.171875v-321.746093c0-7.8125-6.355468-14.167969-14.167968-14.167969h-39.9375v-13.894531h75.902344c.414062 0 .75.335937.75.75zm0 0"/><path d="m264.023438 171.558594h35.578124c4.148438 0 7.511719-3.367188 7.511719-7.515625 0-4.152344-3.363281-7.515625-7.511719-7.515625h-35.578124c-4.148438 0-7.515626 3.363281-7.515626 7.515625 0 4.148437 3.367188 7.515625 7.515626 7.515625zm0 0"/><path d="m161.699219 171.558594h67.132812c4.148438 0 7.515625-3.367188 7.515625-7.515625 0-4.152344-3.367187-7.515625-7.515625-7.515625h-67.132812c-4.148438 0-7.511719 3.363281-7.511719 7.515625 0 4.148437 3.363281 7.515625 7.511719 7.515625zm0 0"/><path d="m242.328125 201.269531h57.273437c4.148438 0 7.511719-3.363281 7.511719-7.511719 0-4.152343-3.363281-7.515624-7.511719-7.515624h-57.273437c-4.148437 0-7.515625 3.363281-7.515625 7.515624 0 4.148438 3.367188 7.511719 7.515625 7.511719zm0 0"/><path d="m161.699219 201.269531h45.839843c4.152344 0 7.515626-3.363281 7.515626-7.511719 0-4.152343-3.363282-7.515624-7.515626-7.515624h-45.839843c-4.148438 0-7.511719 3.363281-7.511719 7.515624 0 4.148438 3.363281 7.511719 7.511719 7.511719zm0 0"/><path d="m102.683594 206.613281c15.28125 0 27.714844-12.433593 27.714844-27.714843s-12.433594-27.710938-27.714844-27.710938-27.710938 12.429688-27.710938 27.710938c0 15.285156 12.429688 27.714843 27.710938 27.714843zm0-40.398437c6.996094 0 12.683594 5.691406 12.683594 12.683594 0 6.996093-5.6875 12.683593-12.683594 12.683593-6.992188 0-12.683594-5.6875-12.683594-12.683593 0-6.992188 5.691406-12.683594 12.683594-12.683594zm0 0"/><path d="m299.601562 246.414062h-35.578124c-4.148438 0-7.515626 3.363282-7.515626 7.515626 0 4.148437 3.367188 7.515624 7.515626 7.515624h35.578124c4.148438 0 7.511719-3.367187 7.511719-7.515624 0-4.152344-3.363281-7.515626-7.511719-7.515626zm0 0"/><path d="m161.699219 261.441406h67.132812c4.148438 0 7.515625-3.363281 7.515625-7.511718 0-4.152344-3.367187-7.515626-7.515625-7.515626h-67.132812c-4.148438 0-7.511719 3.363282-7.511719 7.515626 0 4.148437 3.363281 7.511718 7.511719 7.511718zm0 0"/><path d="m299.601562 276.128906h-57.273437c-4.148437 0-7.515625 3.363282-7.515625 7.515625 0 4.148438 3.363281 7.511719 7.515625 7.511719h57.273437c4.148438 0 7.511719-3.363281 7.511719-7.511719 0-4.152343-3.363281-7.515625-7.511719-7.515625zm0 0"/><path d="m161.699219 291.15625h45.839843c4.152344 0 7.515626-3.363281 7.515626-7.515625 0-4.148437-3.363282-7.511719-7.515626-7.511719h-45.839843c-4.148438 0-7.511719 3.363282-7.511719 7.511719 0 4.152344 3.363281 7.515625 7.511719 7.515625zm0 0"/><path d="m102.683594 296.5c15.28125 0 27.714844-12.433594 27.714844-27.714844s-12.433594-27.714844-27.714844-27.714844-27.710938 12.433594-27.710938 27.714844 12.429688 27.714844 27.710938 27.714844zm0-40.398438c6.996094 0 12.683594 5.691407 12.683594 12.683594 0 6.996094-5.6875 12.683594-12.683594 12.683594-6.992188 0-12.683594-5.6875-12.683594-12.683594 0-6.992187 5.691406-12.683594 12.683594-12.683594zm0 0"/><path d="m299.601562 336.300781h-35.578124c-4.148438 0-7.515626 3.363281-7.515626 7.515625 0 4.148438 3.367188 7.511719 7.515626 7.511719h35.578124c4.148438 0 7.511719-3.363281 7.511719-7.511719 0-4.152344-3.363281-7.515625-7.511719-7.515625zm0 0"/><path d="m161.699219 351.328125h67.132812c4.148438 0 7.515625-3.363281 7.515625-7.511719 0-4.152344-3.367187-7.515625-7.515625-7.515625h-67.132812c-4.148438 0-7.511719 3.363281-7.511719 7.515625 0 4.148438 3.363281 7.511719 7.511719 7.511719zm0 0"/><path d="m299.601562 366.015625h-57.273437c-4.148437 0-7.515625 3.363281-7.515625 7.511719 0 4.152344 3.363281 7.515625 7.515625 7.515625h57.273437c4.148438 0 7.511719-3.363281 7.511719-7.515625 0-4.148438-3.363281-7.511719-7.511719-7.511719zm0 0"/><path d="m161.699219 381.042969h45.839843c4.152344 0 7.515626-3.363281 7.515626-7.515625 0-4.148438-3.363282-7.515625-7.515626-7.515625h-45.839843c-4.148438 0-7.511719 3.367187-7.511719 7.515625 0 4.152344 3.363281 7.515625 7.511719 7.515625zm0 0"/><path d="m102.683594 386.386719c15.28125 0 27.714844-12.433594 27.714844-27.714844s-12.433594-27.714844-27.714844-27.714844-27.710938 12.433594-27.710938 27.714844 12.429688 27.714844 27.710938 27.714844zm0-40.398438c6.996094 0 12.683594 5.691407 12.683594 12.683594s-5.6875 12.683594-12.683594 12.683594c-6.992188 0-12.683594-5.691407-12.683594-12.683594s5.691406-12.683594 12.683594-12.683594zm0 0"/></svg>